HIERARCHY
ROOT Hips
{
	OFFSET	0.00	0.00	0.00
	CHANNELS 6 Xposition Yposition Zposition Zrotation Xrotation Yrotation
	JOINT LeftUpLeg
	{
		OFFSET	 0.126116	-0.014019	-0.065224
		CHANNELS 3 Zrotation Xrotation Yrotation
		JOINT LeftLeg
		{
			OFFSET	 0.000000	 0.000000	 0.569914
			CHANNELS 3 Zrotation Xrotation Yrotation
			JOINT LeftFoot
			{
				OFFSET	 0.000000	 0.000000	 0.544423
				CHANNELS 3 Zrotation Xrotation Yrotation
				JOINT LeftToeBase
				{
					OFFSET	 0.000000	 0.000000	 0.207117
					CHANNELS 3 Zrotation Xrotation Yrotation
					End Site
					{
						OFFSET	 0.000000	 0.000000	 0.207117
					}
				}
			}
		}
	}
	JOINT RightUpLeg
	{
		OFFSET	-0.124023	-0.008373	-0.065224
		CHANNELS 3 Zrotation Xrotation Yrotation
		JOINT RightLeg
		{
			OFFSET	 0.000000	 0.000000	 0.570047
			CHANNELS 3 Zrotation Xrotation Yrotation
			JOINT RightFoot
			{
				OFFSET	 0.000000	 0.000000	 0.544354
				CHANNELS 3 Zrotation Xrotation Yrotation
				JOINT RightToeBase
				{
					OFFSET	 0.000000	 0.000000	 0.207540
					CHANNELS 3 Zrotation Xrotation Yrotation
					End Site
					{
						OFFSET	 0.000000	 0.000000	 0.207540
					}
				}
			}
		}
	}
	JOINT Spine
	{
		OFFSET	 0.000184	-0.007763	 0.117403
		CHANNELS 3 Zrotation Xrotation Yrotation
		JOINT Spine1
		{
			OFFSET	 0.000000	 0.000000	 0.137269
			CHANNELS 3 Zrotation Xrotation Yrotation
			JOINT Spine2
			{
				OFFSET	 0.000000	 0.000000	 0.156879
				CHANNELS 3 Zrotation Xrotation Yrotation
				JOINT LeftShoulder
				{
					OFFSET	 0.080501	-0.002496	 0.160144
					CHANNELS 3 Zrotation Xrotation Yrotation
					JOINT LeftArm
					{
						OFFSET	 0.000000	 0.000000	 0.164363
						CHANNELS 3 Zrotation Xrotation Yrotation
						JOINT LeftForeArm
						{
							OFFSET	 0.000000	 0.000000	 0.364576
							CHANNELS 3 Zrotation Xrotation Yrotation
							JOINT LeftHand
							{
								OFFSET	 0.000000	 0.000000	 0.360812
								CHANNELS 3 Zrotation Xrotation Yrotation
								JOINT LeftHandIndex1
								{
									OFFSET	 0.000000	 0.000000	 0.086006
									CHANNELS 3 Zrotation Xrotation Yrotation
									JOINT LeftHandIndex2
									{
										OFFSET	 0.000000	 0.000000	 0.047236
										CHANNELS 3 Zrotation Xrotation Yrotation
										JOINT LeftHandIndex3
										{
											OFFSET	-0.004284	-0.000551	 0.038166
											CHANNELS 3 Zrotation Xrotation Yrotation
											End Site
											{
												OFFSET	-0.004284	-0.000551	 0.038166
											}
										}
									}
								}
							}
						}
					}
				}
				JOINT Neck
				{
					OFFSET	 0.000000	 0.000000	 0.176489
					CHANNELS 3 Zrotation Xrotation Yrotation
					JOINT Head
					{
						OFFSET	 0.000000	-0.001747	 0.077940
						CHANNELS 3 Zrotation Xrotation Yrotation
						End Site
						{
							OFFSET	 0.000000	-0.001747	 0.077940
						}
					}
				}
				JOINT RightShoulder
				{
					OFFSET	-0.080363	 0.000306	 0.159706
					CHANNELS 3 Zrotation Xrotation Yrotation
					JOINT RightArm
					{
						OFFSET	 0.000000	 0.000000	 0.164196
						CHANNELS 3 Zrotation Xrotation Yrotation
						JOINT RightForeArm
						{
							OFFSET	 0.000000	 0.000000	 0.365611
							CHANNELS 3 Zrotation Xrotation Yrotation
							JOINT RightHand
							{
								OFFSET	 0.000000	 0.000000	 0.360648
								CHANNELS 3 Zrotation Xrotation Yrotation
								JOINT RightHandIndex1
								{
									OFFSET	 0.000000	 0.000000	 0.069977
									CHANNELS 3 Zrotation Xrotation Yrotation
									JOINT RightHandIndex2
									{
										OFFSET	 0.000000	 0.000000	 0.052305
										CHANNELS 3 Zrotation Xrotation Yrotation
										JOINT RightHandIndex3
										{
											OFFSET	 0.009002	-0.000782	 0.042196
											CHANNELS 3 Zrotation Xrotation Yrotation
											End Site
											{
												OFFSET	 0.009002	-0.000782	 0.042196
											}
										}
									}
								}
							}
						}
					}
				}
			}
		}
	}
}
MOTION
Frames:    5
Frame Time: 0.03333334
 0.000518	 0.041560	 1.275591	-0.101600	 2.097148	 0.604774	 4.313704	-5.342219	 178.019900	 2.364035	-13.230050	 0.636840	-0.571859	 71.278370	 0.353652	-2.385833	 28.452750	 0.000004	 3.280448	-4.640370	-178.481300	-0.812685	-11.260080	 0.847745	 5.537580	 69.974590	 0.780675	 2.384659	 28.388700	-0.000001	 0.563998	 6.755185	 0.082551	 0.416029	-4.257967	 0.167315	-0.755837	 7.219730	 0.315229	-91.265220	 70.463560	-178.057600	-7.924135	 2.502025	-20.887450	 26.392820	-0.136014	-0.512297	-10.303020	-20.637790	-4.180901	-2.027600	 6.559038	 9.033609	-5.188889	 0.308190	 3.541030	-5.234859	 0.342567	 0.430617	 4.177433	 16.020580	-6.134535	-5.913969	-11.960260	 1.951316	 89.145220	 69.611690	 177.643500	 10.204010	 8.379590	 4.190473	-25.274790	-10.649980	 30.224160	 7.891114	-21.050340	 6.812127	 1.803333	 3.979147	-15.098590	 4.898592	 3.004813	-9.310344	 5.224449	 0.395017	 2.014677
-0.000082	 0.046834	 1.277481	-0.013849	 3.560001	 0.719977	 4.325857	-6.446757	 177.989200	 2.148504	-11.665660	 0.518989	 0.061401	 70.038890	-0.133978	-2.385833	 28.452750	 0.000004	 2.954167	-5.252482	-178.425600	-0.807373	-8.737015	 0.660312	 4.491852	 68.370350	 1.874749	 2.384659	 28.388700	-0.000001	-0.320336	 7.968686	 0.108466	 0.355784	-8.668286	 0.048819	-0.658099	 12.586030	 0.467551	-90.955270	 68.332310	-177.365400	-6.199442	 1.086309	-24.258300	 24.880170	-0.119905	-0.899402	-7.519180	-23.470080	-5.070171	-2.027600	 6.559038	 9.033609	-5.188889	 0.308190	 3.541030	-5.234859	 0.342567	 0.430617	 4.706029	 21.790090	-7.923638	-5.544787	-15.951260	 1.777003	 88.686590	 66.428700	 176.756600	 9.291678	 7.044109	 7.133921	-24.798130	-10.721680	 31.515290	 4.485636	-22.641310	 5.918479	 1.803333	 3.979147	-15.098590	 4.898592	 3.004813	-9.310344	 5.224449	 0.395017	 2.014677
-0.000975	 0.054727	 1.278153	 0.141214	 5.442723	 0.902844	 4.182043	-8.611238	 177.887800	 2.137800	-11.035540	 0.489259	 0.605444	 69.312280	-0.734979	-2.385833	 28.452760	 0.000004	 2.507658	-6.635756	-178.470100	-1.061961	-6.604582	 0.470553	 3.696104	 66.831650	 3.008603	 2.384659	 28.388700	-0.000001	-1.068794	 8.831162	 0.078083	 0.341550	-12.422200	-0.040702	-0.955121	 16.649500	 0.631403	-90.828660	 66.575930	-177.271400	-4.544612	 1.737814	-27.265470	 22.479710	-0.085187	-1.340113	-6.685714	-26.457270	-6.770790	-2.027600	 6.559038	 9.033609	-5.188889	 0.308190	 3.541030	-5.234859	 0.342567	 0.430617	 4.540612	 25.453430	-8.776080	-5.113387	-18.827290	 1.557428	 88.405470	 63.415310	 176.485000	 7.357279	 7.340862	 9.491906	-23.642880	-10.138390	 32.464520	 1.911775	-24.333370	 5.818112	 1.803333	 3.979147	-15.098590	 4.898592	 3.004813	-9.310344	 5.224449	 0.395017	 2.014677
-0.001619	 0.065607	 1.277798	 0.437627	 7.901011	 1.059251	 3.793446	-12.155580	 177.829100	 2.051250	-11.630410	 0.497795	 1.502978	 68.876840	-1.640706	-2.385832	 28.452790	-0.000001	 1.918713	-9.338031	-178.542900	-1.490855	-5.625733	 0.358823	 3.304802	 65.749820	 3.919855	 2.384659	 28.388700	-0.000001	-1.877690	 9.217824	-0.049675	 0.375691	-15.917800	 0.027914	-1.440732	 19.758390	 0.811259	-91.258110	 65.106160	-178.616400	-2.609491	 3.426147	-28.592380	 19.543600	-0.033345	-1.829749	-7.427308	-28.658740	-9.018688	-2.027600	 6.559038	 9.033609	-5.188889	 0.308190	 3.541030	-5.234859	 0.342567	 0.430617	 3.922890	 26.807550	-8.779807	-4.848146	-20.229880	 1.241784	 88.768690	 61.305250	 177.613600	 3.981203	 8.803408	 10.025130	-22.080220	-9.266205	 33.521260	-0.055208	-25.767250	 6.359173	 1.803333	 3.979147	-15.098590	 4.898592	 3.004813	-9.310344	 5.224449	 0.395017	 2.014677
-0.001952	 0.082153	 1.276132	 0.833472	 11.412900	 1.036219	 3.188359	-17.837070	 177.972700	 2.016280	-13.626000	 0.573458	 2.859278	 68.728230	-3.119765	-2.385832	 28.452790	-0.000001	 1.412630	-14.644410	-178.519300	-1.808630	-6.975989	 0.405822	 2.924274	 65.575680	 4.736412	 2.384659	 28.388700	-0.000001	-2.941567	 9.220466	-0.101667	 0.572561	-19.041210	 0.090750	-2.009037	 22.049750	 1.379036	-92.446650	 65.051910	 178.214300	-0.739417	 7.550912	-28.347070	 18.183050	 0.029610	-2.453136	-7.801054	-30.450200	-10.847110	-2.027600	 6.559038	 9.033609	-5.188889	 0.308190	 3.541030	-5.234859	 0.342567	 0.430617	 3.196770	 25.557970	-8.979454	-4.610515	-20.221510	 0.889229	 89.919620	 60.370000	-179.686200	-0.479579	 12.229960	 8.760804	-19.903730	-8.223291	 35.690920	-1.150613	-27.695340	 7.018101	 1.803333	 3.979147	-15.098590	 4.898592	 3.004813	-9.310344	 5.224449	 0.395017	 2.014677
